<?xml version="1.0" encoding="UTF-8"?><svg xmlns="http://www.w3.org/2000/svg" viewBox="0 0 493.53 493.53"><defs><style>.cls-1{fill:#305863;}.cls-2{fill:#181e29;}.cls-3{fill:none;stroke:#305863;stroke-miterlimit:10;stroke-width:9px;}</style></defs><g id="BG"><rect class="cls-2" width="493.53" height="493.53"/></g><g id="Floor-tom"><rect class="cls-1" x="12.21" y="453.55" width="19.4" height="26.7"/><rect class="cls-1" x="462.09" y="453.55" width="19.4" height="26.7"/><rect class="cls-3" x="65.53" y="81.22" width="365.41" height="296.92"/><rect class="cls-3" x="50.77" y="55.12" width="392.17" height="26.1"/><rect class="cls-3" x="50.77" y="378.14" width="392.17" height="21.63"/><rect class="cls-3" x="109.28" y="211.22" width="19.91" height="47.43"/><rect class="cls-3" x="194.3" y="211.22" width="19.91" height="47.43"/><rect class="cls-3" x="279.32" y="211.22" width="19.91" height="47.43"/><rect class="cls-3" x="364.34" y="211.22" width="19.91" height="47.43"/><line class="cls-3" x1="119.23" y1="211.22" x2="119.23" y2="81.22"/><line class="cls-3" x1="204.26" y1="211.22" x2="204.26" y2="81.22"/><line class="cls-3" x1="289.28" y1="211.22" x2="289.28" y2="81.22"/><line class="cls-3" x1="374.3" y1="211.22" x2="374.3" y2="81.22"/><line class="cls-3" x1="119.23" y1="378.14" x2="119.23" y2="254.69"/><line class="cls-3" x1="204.26" y1="378.14" x2="204.26" y2="254.69"/><line class="cls-3" x1="289.28" y1="378.14" x2="289.28" y2="254.69"/><line class="cls-3" x1="374.3" y1="378.14" x2="374.3" y2="254.69"/><polyline class="cls-3" points="50.77 76.6 50.77 395.66 31.62 414.99 31.62 480.26"/><polyline class="cls-3" points="442.94 76.6 442.94 395.66 462.09 414.99 462.09 480.26"/></g></svg>