<?xml version="1.0" encoding="UTF-8"?><svg xmlns="http://www.w3.org/2000/svg" viewBox="0 0 493.53 493.53"><defs><style>.cls-1{fill:#305863;}.cls-2{fill:#181e29;}.cls-3{fill:none;stroke:#305863;stroke-miterlimit:10;stroke-width:9px;}</style></defs><g id="BG"><rect class="cls-2" x="0" width="493.53" height="493.53"/></g><g id="Hi-tom"><rect class="cls-1" x="95.84" y="218.92" width="19.4" height="61.85" transform="translate(211.09 499.7) rotate(-180)"/><rect class="cls-3" x="113.46" y="150.92" width="304.85" height="209.79"/><rect class="cls-3" x="85.33" y="124.82" width="359.02" height="26.1"/><rect class="cls-3" x="85.33" y="360.71" width="359.02" height="26.1"/><rect class="cls-3" x="168.61" y="221.95" width="19.91" height="55.79"/><rect class="cls-3" x="253.63" y="221.95" width="19.91" height="55.79"/><rect class="cls-3" x="338.65" y="221.95" width="19.91" height="55.79"/><line class="cls-3" x1="178.56" y1="221.95" x2="178.56" y2="150.92"/><line class="cls-3" x1="263.59" y1="221.95" x2="263.59" y2="150.92"/><line class="cls-3" x1="348.61" y1="221.95" x2="348.61" y2="150.92"/><line class="cls-3" x1="178.56" y1="360.71" x2="178.56" y2="277.74"/><line class="cls-3" x1="263.59" y1="360.71" x2="263.59" y2="277.74"/><line class="cls-3" x1="348.61" y1="360.71" x2="348.61" y2="277.74"/><polyline class="cls-3" points="115.24 249.85 45.22 249.85 45.22 494.6"/></g></svg>