<?xml version="1.0" encoding="UTF-8"?><svg xmlns="http://www.w3.org/2000/svg" viewBox="0 0 493.53 493.53"><defs><style>.cls-1{fill:#181e29;}.cls-2,.cls-3{fill:none;stroke:#305863;stroke-miterlimit:10;stroke-width:9px;}.cls-3{stroke-linecap:round;}</style></defs><g id="BG"><rect class="cls-1" x="0" width="493.53" height="493.53"/></g><g id="Crash"><path class="cls-2" d="M306.03,142.29c-25.33-9.61-63.64-4.52-99.88,15.72-36.25,20.25-60.66,50.2-65.76,76.81-70.38,48.56-113.33,93.84-102.77,112.74,14.17,25.36,119.29-6.39,234.8-70.92,115.51-64.53,197.67-137.39,183.5-162.75-10.56-18.9-71.64-6.07-149.89,28.4Z"/><path class="cls-3" d="M200.86,186.1c11.46,.03,21.1-5.36,28.93-16.16"/><line class="cls-3" x1="278.82" y1="273.04" x2="349.74" y2="376.6"/><line class="cls-3" x1="190.38" y1="141.6" x2="215.32" y2="178.02"/><circle class="cls-3" cx="339.24" cy="390.38" r="16.85"/><line class="cls-3" x1="341.57" y1="411.82" x2="341.57" y2="514.98"/></g></svg>