<?xml version="1.0" encoding="UTF-8"?><svg xmlns="http://www.w3.org/2000/svg" viewBox="0 0 493.53 493.53"><defs><style>.cls-1{fill:#181e29;}.cls-2,.cls-3{fill:none;stroke:#305863;stroke-miterlimit:10;stroke-width:9px;}.cls-3{stroke-linecap:round;}</style></defs><g id="BG"><rect class="cls-1" width="493.53" height="493.53"/></g><g id="Hi-hat"><path class="cls-3" d="M232.09,171.32c8.01,5.62,16.86,5.62,26.55,0"/><line class="cls-3" x1="245.37" y1="175.54" x2="245.37" y2="28.88"/><line class="cls-3" x1="245.37" y1="494.6" x2="245.37" y2="349.05"/><g><path class="cls-2" d="M429.09,249.22c6.28-5.21,9.68-10.76,9.68-16.54,0-21.65-47.75-40.24-115.97-48.31-13.97-20.74-42.76-34.98-76.03-34.98s-62.07,14.24-76.03,34.98c-68.22,8.07-115.97,26.66-115.97,48.31,0,5.78,3.4,11.33,9.68,16.54,25.3,20.95,97.37,36.06,182.32,36.06s157.02-15.11,182.32-36.06Z"/><path class="cls-2" d="M64.46,249.21h-.01c-6.28,5.22-9.68,10.77-9.68,16.55,0,21.65,47.75,40.24,115.97,48.31,13.96,20.74,42.75,34.98,76.03,34.98s62.06-14.24,76.03-34.98c68.22-8.07,115.97-26.66,115.97-48.31,0-5.78-3.41-11.33-9.68-16.54h-.01"/><path class="cls-2" d="M322.8,314.07c-53.49,6.83-104.16,6.84-152.06,0"/></g></g></svg>