<?xml version="1.0" encoding="UTF-8"?><svg xmlns="http://www.w3.org/2000/svg" viewBox="0 0 493.53 493.53"><defs><style>.cls-1{fill:#305863;}.cls-2{fill:#181e29;}.cls-3{fill:none;stroke:#305863;stroke-miterlimit:10;stroke-width:9px;}</style></defs><g id="BG"><rect class="cls-2" width="493.53" height="493.53"/></g><g id="Kick"><path class="cls-3" d="M406.49,305.19l-9.23,21.73,14.3,6.07,22.29,9.47c-20.41,41.73-54.62,76.88-99.42,97.91l-9.07-22.47-5.89-14.58-21.89,8.84,5.88,14.58,9.07,22.46c-46.85,15.97-95.86,14.42-139.51-1.44l9.47-22.29,6.07-14.29-21.74-9.23-6.05,14.22-9.47,22.31c-41.51-20.57-76.41-54.84-97.23-99.64l22.45-9.06,17.26-6.97-8.83-21.91-17.17,6.93-22.47,9.07c-15.69-46.62-14.08-95.36,1.7-138.78l22.31,9.48,16.59,7.05,9.23-21.74-16.53-7.03-22.31-9.47c20.46-41.28,54.47-76.04,98.92-96.9l9.07,22.47,6.66,16.49,21.89-8.84-6.65-16.49-9.07-22.46c46.48-15.85,95.08-14.44,138.47,1.07l-9.47,22.29-7.03,16.53,21.73,9.23,7.05-16.59,9.48-22.29c41.5,20.3,76.49,54.25,97.56,98.7l-22.48,9.07-13.8,5.57,8.84,21.91,13.9-5.61,22.46-9.07c16.11,46.7,14.77,95.59-.83,139.21l-22.29-9.47-14.23-6.05Z"/><path class="cls-3" d="M406.49,305.19l-9.23,21.73,14.3,6.07c-17.94,36.04-47.55,66.42-86.19,84.91l-5.89-14.58-21.89,8.84,5.88,14.58c-40.65,13.52-83.05,12.21-120.97-1.28l6.07-14.29-21.74-9.23-6.05,14.22c-35.83-18.09-65.98-47.77-84.26-86.39l17.26-6.97-8.83-21.91-17.17,6.93c-13.26-40.41-11.88-82.53,1.54-120.23l16.59,7.05,9.23-21.74-16.53-7.03c17.97-35.6,47.4-65.6,85.68-83.9l6.66,16.49,21.89-8.84-6.65-16.49c40.27-13.4,82.27-12.23,119.93,.91l-7.03,16.53,21.73,9.23,7.05-16.59c35.83,17.81,66.06,47.18,84.56,85.47l-13.8,5.57,8.84,21.91,13.9-5.61c13.66,40.49,12.56,82.79-.66,120.67l-14.23-6.05Z"/><polygon class="cls-3" points="188.56 411.18 182.49 425.46 173.02 447.76 166.63 462.78 144.89 453.55 151.3 438.47 160.77 416.16 166.82 401.94 188.56 411.18"/><polygon class="cls-3" points="344.17 44.88 337.36 60.93 327.88 83.22 320.83 99.81 299.1 90.58 306.13 74.05 315.6 51.75 322.43 35.64 344.17 44.88"/><polygon class="cls-3" points="340.47 455.32 318.56 464.16 312.53 449.2 303.46 426.74 297.58 412.16 319.47 403.31 325.36 417.89 334.43 440.37 340.47 455.32"/><polygon class="cls-3" points="192.84 89.62 170.95 98.47 164.29 81.98 155.22 59.51 148.6 43.11 170.5 34.26 177.13 50.68 186.2 73.14 192.84 89.62"/><polygon class="cls-3" points="458.11 327.12 448.87 348.85 433.85 342.46 411.56 332.99 397.25 326.92 406.49 305.19 420.72 311.24 443.01 320.71 458.11 327.12"/><polygon class="cls-3" points="95.14 172.91 85.9 194.65 69.31 187.6 47.01 178.12 30.96 171.3 40.19 149.58 56.3 156.41 78.61 165.88 95.14 172.91"/><polygon class="cls-3" points="459.48 175.18 443.84 181.49 421.38 190.56 407.48 196.17 398.64 174.27 412.44 168.69 434.92 159.62 450.64 153.28 459.48 175.18"/><polygon class="cls-3" points="93.78 322.8 76.52 329.77 54.07 338.82 38.43 345.14 29.59 323.25 45.31 316.89 67.78 307.82 84.95 300.89 93.78 322.8"/><rect class="cls-1" x="34.66" y="430.57" width="19.4" height="26.7"/><line class="cls-3" x1="54.07" y1="338.82" x2="54.07" y2="457.28"/><rect class="cls-1" x="431.14" y="430.57" width="19.4" height="26.7" transform="translate(881.69 887.85) rotate(-180)"/><line class="cls-3" x1="431.14" y1="338.82" x2="431.14" y2="457.28"/></g></svg>