<?xml version="1.0" encoding="UTF-8"?><svg xmlns="http://www.w3.org/2000/svg" viewBox="0 0 493.53 493.53"><defs><style>.cls-1{fill:#181e29;}.cls-2{fill:none;stroke:#305863;stroke-miterlimit:10;stroke-width:9px;}</style></defs><g id="BG"><rect class="cls-1" y="0" width="493.53" height="493.53"/></g><g id="Snare"><rect class="cls-2" x="47.23" y="222.04" width="404.43" height="113.31"/><rect class="cls-2" x="30.89" y="195.94" width="434.04" height="26.1"/><rect class="cls-2" x="30.89" y="335.34" width="434.04" height="26.1"/><rect class="cls-2" x="114.17" y="250.8" width="19.91" height="55.79"/><rect class="cls-2" x="199.19" y="250.8" width="19.91" height="55.79"/><rect class="cls-2" x="284.21" y="250.8" width="19.91" height="55.79"/><rect class="cls-2" x="369.23" y="250.8" width="19.91" height="55.79"/><line class="cls-2" x1="124.13" y1="250.8" x2="124.13" y2="222.04"/><line class="cls-2" x1="209.15" y1="250.8" x2="209.15" y2="222.04"/><line class="cls-2" x1="294.17" y1="250.8" x2="294.17" y2="222.04"/><line class="cls-2" x1="379.19" y1="250.8" x2="379.19" y2="222.04"/><line class="cls-2" x1="124.13" y1="335.34" x2="124.13" y2="306.58"/><line class="cls-2" x1="209.15" y1="335.34" x2="209.15" y2="306.58"/><line class="cls-2" x1="294.17" y1="335.34" x2="294.17" y2="306.58"/><line class="cls-2" x1="379.19" y1="335.34" x2="379.19" y2="306.58"/><polyline class="cls-2" points="247.91 493.53 247.91 421.82 59.96 361.44"/><polyline class="cls-2" points="419.96 361.44 247.91 421.82 247.91 361.44"/></g></svg>